<?xml version="1.0" encoding="iso-8859-1"?>
<!-- Generator: Adobe Illustrator 23.0.1, SVG Export Plug-In . SVG Version: 6.00 Build 0)  -->
<svg version="1.1" id="Layer_1" xmlns="http://www.w3.org/2000/svg" xmlns:xlink="http://www.w3.org/1999/xlink" x="0px" y="0px" width="461.5px" height="253.8px" viewBox="0 0 461.5 253.8" enable-background="new 0 0 461.5 253.8" xml:space="preserve">
  <g>
    <g>
      <path fill="#FFFFFF" d="M456.4,128.4c2.9-2.6,2.9-24.4,2.2-25.7c-0.6-1.3-4.5-3.5-4.5-3.5c-21.5-68.1-70.3-78.4-70.3-78.4
			c-10.6,3.2-32.1,26-32.1,26s-3.2,1.3-12.2,1.9c-9,0.6-16.4-2.6-16.4-2.6C298,34,310.2,2.5,310.2,2.5S288.9,13,290,43.4
			c1.1,31.5,30.2,41,30.2,41l-4.4,6.5l0.9,1c-1.7,0.3-3.2,2.2-6.6,2.5c-3.4,0.3-6.6-3.8-6.6-3.8c-1.5,7.5,7.7,9,7.7,9
			c-1,0.8-3.4,2.6-7.6,2.6c-5.2,0-8.7-4.4-8.7-4.4c0,4,2.3,6.8,4.2,8.5c-2.5,1.4-4.7,3-6.7,4.9c-0.3-0.4-0.6-0.9-0.9-1.3
			c-0.8-0.9-1.6-1.8-2.5-2.5c0.2-0.1,0.3-0.1,0.3-0.1c-0.2-0.1-0.4-0.1-0.6-0.2c-6.1-4.9-14.4-5.5-20.5-5.5
			c-7.8,0-14.5,1.6-20.2,4.6l0.6-3h-43.3l-0.1-1.8l-0.4,1.8h-7.7h-13.3h-6.1h-2.9l1-4.8c0.4-2,0.3-3.6-0.2-4.8
			c0.9-1.1,1.5-2.5,1.8-4.1c0.7-3.2,1.2-6.5-0.7-8.8c-1.9-2.3-5.3-2.5-8.3-2.5h-4.8h-5.2h-6.8h-5.8h-9.4h-5.8h-8.1h-1h-1.5h-5.2
			h-6.5H102H90.7h-6.1H72.8l-0.2,1.1c-1.8-1-4.1-1.1-6-1.1h-5.9h-5.1h-8.8h-1h-5h-1.8H28.8h-3.3H5.3l-2.8,31.8h12.3h3h8.1L18,200.1
			h42h3.3h22.5h13.3h38.2h19.8h5.9h13.3h51.5l0.7-3.1c3.2,2.6,8,4.8,15.2,4.8c3.4,0,6.8-0.6,10-1.6h28.1l0.5-2.4
			c5.8,3.6,13,4.1,18.5,4.1c11,0,18.8-2.7,24.5-6.8c0.6,3.5,6,3.5,6,3.5c-1.6,0.6-4.3-0.1-4.3-0.1c2.1,1.6,5.8,1.8,5.8,1.8
			c-4.3,0.9-9.6-2.7-9.6-2.7c11.1,12.3,22.4,2.8,22.4,2.8s-1.4,5.1,3.9,12.3c5.3,7.2,1.7,12.7,1.7,12.7c6.9-4.5,6.3-12.4,6.1-13.8
			c0.8,6,7.8,14.1,8.7,24.5c0.6,7.5-3.2,15.4-3.2,15.4c4.5,0.4,6.9-3.9,6.9-3.9l-0.2,1.7c2-1.2,3-3.8,3-3.8c4-2.2,4.6-8.9,4.6-8.9
			c2.2-3,1.6-6.8,1.6-6.8c1.1-3.4-0.2-8.8-1.9-12.4c-1.7-3.6-4-9.7-4-9.7c4.7,3.5,10.6,5,10.6,5l1.1-0.8c-1.9-3.6-4-15.6-4-15.6
			c2.1,4.2,6.3,8.3,6.3,8.3s10.1,11.4,10.8,21c0.7,9.6-2.5,15.7-2.5,15.7c0.8,0.3,1.5-0.2,1.5-0.2c-0.5,1-1.8,2.4-1.8,2.4
			c5.1-2,9.5-12.3,9.5-12.3c0.2,1.7,1.4,2.7,1.4,2.7c-0.2-1.5,0.6-5.1,0.6-5.1l0.5,0.7c0.6-2.1,0.5-6.6,0.5-6.6
			c5,4.6,12.7,6.5,12.7,6.5c3.6,3,8.6,2.2,8.6,2.2c5.2,10.6,0.5,14.3,0.5,14.3c1.7,0.1,3.1-2,3.1-2c1.2,0,2.4-1.6,2.4-1.6
			c0.8-0.1,1.7-0.8,1.7-0.8c-0.6,2.8,0.5,4.1,0.5,4.1c0.1-2,3.1-7.2,3.1-7.2c1.1,2.6,3.3,2.5,3.3,2.5c-1.7-1.6,4.6-14.7,1.9-27.1
			c-2.7-12.3-14.9-20.8-14.9-20.8c2.7-1.1,5.1-6.4,3.5-9c-1.5-2.7-5.6-4-5.6-4c0.5-2.9-1.7-5.1-2.2-5.1c-0.5,0-1.6,0.6-1.6,0.6
			c-2.3-1.2-0.8-8.7-0.8-8.7c0.8,0.5,4,0.9,6.1-0.9c2.1-1.9,1.6-5.7,1.6-5.7l0.6,0.2c0,0-0.6,0.4,0.1,0.5c0.7,0.1,2.3,0.3,2.3,0.3
			s-1.1,0.6-0.5,0.7c0.6,0,1.2,0,1.2,0s-0.5,0.4,0.2,0.4c0.7,0,1.6-0.5,1.6-0.5s-0.7,0.6-0.1,0.6c0.6,0,2.4-1.1,2.4-1.1
			s-1,1-0.5,0.8c0.5-0.1,1.8-0.8,1.8-0.8s-2.3,2.8-1.6,2.8c0.6,0,1.5-0.7,1.5-0.7l-0.2,0.8c6.3-1.7,8.6-9.7,8.6-9.7
			c3.4-0.3,5-2.2,5.7-3.9c0.6-1.3,0.8-3.3,0.9-3.8c0.1-5-4.4-17.3-4.4-17.3S453.5,131,456.4,128.4z" />
      <path fill="#FFFFFF" d="M363.5,253.9c-0.3,0-0.6,0-0.9,0c-0.8-0.1-1.5-0.6-1.9-1.3c-0.4-0.7-0.4-1.6-0.1-2.3c0-0.1,3.5-7.3,3-14
			c-0.5-5.5-2.9-10.5-5.1-14.9c-0.1-0.1-0.1-0.2-0.2-0.4c-1.1,2.3-2.9,4.7-5.7,6.5c-1,0.6-2.3,0.5-3.1-0.3c-0.8-0.8-1-2.1-0.3-3.1
			c0.1-0.1,2.5-4.3-1.6-9.9c-2.8-3.7-3.9-7-4.4-9.5c-4.8,2.1-13.1,3.7-21.2-4.7c-5.9,2.9-12.9,4.4-21.1,4.4
			c-4.6,0-11.1-0.3-16.9-2.9c-0.4,0.8-1.3,1.2-2.2,1.2h-27.7c-3.4,1.1-6.9,1.6-10.4,1.6c-5.2,0-9.7-1.1-13.5-3.2
			c-0.4,0.9-1.3,1.5-2.3,1.5H18c-0.7,0-1.4-0.3-1.8-0.8c-0.5-0.5-0.7-1.2-0.6-1.9l7.6-87.4H2.5c-0.7,0-1.4-0.3-1.8-0.8
			c-0.5-0.5-0.7-1.2-0.6-1.9l2.8-31.8c0.1-1.3,1.2-2.3,2.5-2.3h61.4c1.4,0,3,0.1,4.7,0.5c0.4-0.3,0.9-0.5,1.5-0.5h95.4
			c2.6,0,7.4,0,10.2,3.5c2.6,3.2,2,7.3,1.2,10.9c-0.3,1.5-0.8,2.9-1.5,4c0.3,1.5,0.3,3.1-0.1,4.9l-0.4,1.8h25
			c0.3-1.1,1.4-1.9,2.6-1.8c1,0.1,1.9,0.8,2.2,1.8h41c0.8,0,1.5,0.3,1.9,0.9c0.1,0.1,0.2,0.3,0.3,0.5c5.2-2,11-3,17.4-3
			c6.1,0,14.9,0.6,21.6,5.7c0.1,0,0.3,0.1,0.4,0.2c0.6,0.3,1.1,0.7,1.3,1.3c0.4,0.4,0.8,0.8,1.2,1.2c0.8-0.6,1.6-1.3,2.5-1.8
			c-1.5-2-2.7-4.6-2.8-7.9c0-1.1,0.7-2,1.7-2.4c1-0.4,2.1,0,2.8,0.8c0,0,2.8,3.4,6.7,3.4c0,0,0,0,0.1,0c0.5,0,0.9,0,1.3-0.1
			c-0.9-0.6-1.8-1.5-2.5-2.5c-1.4-2-1.8-4.4-1.3-7.1c0.2-1,0.9-1.7,1.9-1.9c1-0.2,2,0.1,2.6,0.9c1,1.2,3,3,4.4,2.9
			c1.5-0.2,2.5-0.7,3.5-1.3c0-0.4,0.2-0.8,0.4-1.1l2.6-3.9c-7.8-3.6-28-15.4-28.9-42c-1.1-31.7,20.7-42.8,21.7-43.3
			c0.9-0.5,2-0.3,2.8,0.4c0.8,0.7,1,1.8,0.6,2.7c-0.5,1.2-11,29.4,11.6,40.5c0.6,0.2,7.3,2.9,15.2,2.4c6.5-0.5,9.9-1.3,11-1.6
			c3.2-3.4,22.4-23.1,32.8-26.2c0.4-0.1,0.8-0.1,1.2-0.1c0.5,0.1,12.9,2.8,28.1,14.1c13.8,10.2,32.5,29.8,43.8,65.1
			c1.9,1.2,3.9,2.7,4.6,4.1c1.2,2.3,1.2,25.1-2.8,28.7c0,0,0,0,0,0c-1.2,1-2.3,1.6-3.4,1.8c1.4,4.2,3.2,10.7,3.2,14.3
			c0,0.5-0.2,2.9-1.1,4.8c-1.2,2.6-3.3,4.4-6.1,5.1c-1.1,2.7-4,8.3-9.8,9.9c-0.5,0.1-1,0.1-1.4,0c-0.2,0-0.5,0-0.7,0
			c-1-0.1-1.8-0.7-2.2-1.6c0-0.1,0-0.1-0.1-0.2c-0.2,0-0.3-0.1-0.5-0.1c-0.1,0-0.2,0-0.4,0c-0.7,0-1.2-0.1-1.7-0.3c0,0-0.1,0-0.1,0
			c-0.1,0-0.2,0-0.2,0c-0.3,1.2-1,2.5-2.1,3.5c-1.7,1.5-3.9,2-5.6,2c-0.1,1-0.1,2-0.1,2.8c0.2,0,0.4,0,0.5,0c1,0.1,1.9,0.7,2.9,1.9
			c0.9,1.2,1.5,2.6,1.7,4.1c1.6,0.8,3.9,2.2,5.2,4.4c1,1.8,1.1,4.2,0.2,6.7c-0.4,1.1-1.1,2.4-1.9,3.5c3.9,3.4,11.2,10.7,13.4,20.3
			c1.8,8.1-0.1,16.5-1.3,21.9c-0.4,1.6-0.8,3.6-0.8,4.4c0.3,0.6,0.4,1.4,0.2,2.1c-0.3,1-1.2,1.6-2.3,1.6c-0.7,0-1.8-0.1-2.8-0.7
			c-0.7,1.4-1.1,2.6-1.2,3.1c-0.1,1-0.7,1.9-1.7,2.2c-1,0.3-2,0.1-2.7-0.7c-0.1-0.2-0.5-0.6-0.8-1.3c-0.2,0.1-0.3,0.1-0.5,0.2
			c-0.9,1-2.5,2.3-4.7,2.2c-1.1-0.1-2.1-0.7-2.4-1.8c-0.3-1,0.1-2.1,1-2.7l0,0c0,0,2.5-2.5-0.5-9.7c-2.1,0-5.4-0.4-8.2-2.5
			c-1.4-0.4-5.4-1.6-9.3-3.9c-0.1,0.9-0.2,1.8-0.4,2.5c-0.1,0.5-0.5,1-0.9,1.3c-0.1,1-0.2,1.8-0.2,2.2c0.1,1-0.4,2-1.3,2.5
			c-0.7,0.4-1.6,0.4-2.3,0.1c-2,3.5-5.2,8.2-8.9,9.7c-1.1,0.4-2.3,0.1-3-0.9c-0.6-0.9-0.6-2,0-2.9c-0.2-0.6-0.2-1.4,0.2-2
			c0,0,2.9-5.7,2.2-14.4c-0.6-7.6-7.9-16.8-9.8-19.1c0.5,1.7,1,3.2,1.4,4c0.6,1.1,0.3,2.5-0.8,3.2l-1.1,0.8c-0.6,0.4-1.3,0.5-2,0.4
			c-0.2,0-2.3-0.6-5.1-1.8c0.5,1.1,0.9,2.1,1.3,3c1.8,3.7,3.2,9.5,2.2,13.7c0.1,1.3,0.2,4.6-1.7,7.5c-0.3,1.9-1.3,7.1-5.1,9.7
			c-0.6,1.1-1.7,3-3.6,4.2c-0.4,0.3-0.9,0.4-1.4,0.4C368,252.8,365.9,253.9,363.5,253.9z M357.3,209c1.2,0,2.3,0.9,2.5,2.2
			c0.3,2.1,1.6,4.8,3.1,7.9c2.2,4.6,5.1,10.2,5.6,16.7c0.3,3.9-0.4,7.8-1.3,10.9c0.2-0.3,0.3-0.4,0.3-0.5c0.5-0.9,1.5-1.3,2.4-1.3
			c0.1-0.2,0.2-0.4,0.2-0.5c0.2-0.5,0.6-1,1.1-1.3c2.3-1.2,3.2-5.5,3.3-6.9c0-0.4,0.2-0.9,0.5-1.2c1.5-2,1.1-4.9,1.1-4.9
			c-0.1-0.4,0-0.8,0.1-1.1c0.8-2.7-0.3-7.5-1.8-10.6c-1.8-3.6-4-9.7-4.1-9.9c-0.4-1,0-2.2,0.8-2.9c0.9-0.7,2.1-0.7,3,0
			c2.2,1.6,4.7,2.8,6.6,3.5c-1.5-4.9-2.6-11.5-2.8-12.5c-0.2-1.2,0.5-2.4,1.7-2.8c1.2-0.4,2.5,0.1,3,1.3c1.9,3.8,5.8,7.6,5.8,7.6
			c0,0,0.1,0.1,0.1,0.1c0.4,0.5,10.7,12.2,11.4,22.5c0.3,3.6,0,6.7-0.4,9.3c0.9-1.6,1.7-3.1,2.3-4.4c0.3-0.8,1-1.3,1.7-1.4
			c0-0.2,0.1-0.4,0.1-0.5c0.1-0.6,0.4-1.1,0.9-1.4c0.1-1.3,0.1-2.9,0.1-4c0-1,0.6-1.9,1.5-2.3s2-0.2,2.7,0.5
			c4.4,4.1,11.5,5.8,11.6,5.9c0.4,0.1,0.7,0.3,1,0.5c2.6,2.2,6.6,1.6,6.7,1.6c1.1-0.2,2.1,0.4,2.6,1.4c1.9,3.9,2.7,7.1,2.7,9.6
			c0.2-0.1,0.5-0.2,0.8-0.2c0,0,0.2-0.2,0.4-0.3c0.6-0.4,1.2-0.6,1.9-0.5c0.4-0.8,0.8-1.4,1-1.9c0.5-0.8,1.3-1.3,2.3-1.3
			c0.3,0,0.6,0.1,0.9,0.2c0.1-0.6,0.3-1.2,0.4-1.9c1.1-5.1,2.9-12.7,1.3-19.8c-2.5-11.2-13.8-19.2-13.9-19.3c-0.8-0.5-1.2-1.4-1-2.3
			s0.7-1.7,1.6-2c0.5-0.2,1.5-1.2,2.1-2.9c0.5-1.3,0.4-2.3,0.2-2.6c-0.8-1.4-3.2-2.5-4.2-2.9c-1.2-0.4-1.9-1.6-1.7-2.8
			c0.1-0.7-0.1-1.4-0.4-1.8c-0.7,0.3-1.5,0.3-2.1-0.1c-3.4-1.8-2.8-7.9-2.1-11.4c0.2-0.8,0.7-1.5,1.4-1.8c0.7-0.3,1.5-0.3,2.2,0.1
			c0.4,0.1,2.2,0.4,3.2-0.6c0.7-0.7,0.9-2.5,0.8-3.6c-0.1-0.9,0.2-1.7,0.9-2.2c0.7-0.5,1.6-0.7,2.4-0.4l0.6,0.2
			c0.3,0.1,0.6,0.3,0.9,0.5c0.4,0,0.7,0.1,1,0.1c0.5,0.1,1,0.3,1.4,0.6c0.4-0.1,0.9-0.2,1.3-0.1c0.2-0.1,0.3-0.2,0.4-0.2
			c0.6-0.3,1.3-0.4,1.9-0.3c0.9-0.2,1.9,0.1,2.6,0.8c0.1,0.1,0.2,0.2,0.2,0.3c2.6-2.4,3.7-6.1,3.7-6.2c0.3-1,1.1-1.7,2.2-1.8
			c1.8-0.2,3-1,3.7-2.4c0.4-0.9,0.6-2.5,0.6-2.8c0.1-3.7-3-13.1-4.2-16.4c-0.4-1,0-2.2,0.9-2.9c0.9-0.7,2.1-0.7,3,0
			c0.3,0.2,1.1,0.5,2.2-0.4c1.6-2.4,2.2-19.2,1.7-22.8c-0.5-0.5-2.1-1.6-3.4-2.4c-0.5-0.3-0.9-0.8-1.1-1.4
			c-10.9-34.5-29.1-53.6-42.3-63.5c-12.4-9.2-22.9-12.4-25.5-13.1c-8.4,3.1-24.7,19.1-30.4,25.1c-0.2,0.3-0.6,0.5-0.9,0.6
			c-0.4,0.1-3.8,1.4-13,2.1c-9.5,0.7-17.2-2.6-17.6-2.8c0,0-0.1,0-0.1,0c-19.3-9.4-18.2-29.3-16-39.9c-5.8,5.1-14.2,15.8-13.5,34.8
			c1,29.3,27.3,38.3,28.5,38.7c0.7,0.2,1.3,0.8,1.6,1.6c0.3,0.7,0.1,1.6-0.3,2.2l-3.3,4.9c0.3,0.6,0.3,1.3,0.1,1.9
			c-0.3,0.9-1.1,1.5-2,1.6c-0.2,0-0.8,0.4-1.2,0.6c-1.2,0.7-2.9,1.6-5.3,1.9c0.4,0.1,0.7,0.2,0.9,0.2c1,0.2,1.8,0.9,2,1.8
			c0.2,0.9-0.1,2-0.8,2.6c-2.6,2.1-5.6,3.2-9.2,3.2c-1.1,0-2.1-0.1-3-0.4c0,0,0.1,0.1,0.1,0.1c0.6,0.5,0.9,1.3,0.8,2.2
			c-0.1,0.8-0.6,1.5-1.3,1.9c-2.3,1.2-4.3,2.8-6.1,4.5c-0.5,0.5-1.3,0.8-2,0.7s-1.4-0.5-1.8-1.1c-0.3-0.4-0.5-0.8-0.8-1.1
			c-0.6-0.8-1.4-1.5-2.2-2.2c0,0-0.1-0.1-0.1-0.1c-0.1,0-0.1-0.1-0.2-0.1c-5.5-4.4-13.4-4.9-18.9-4.9c-7.3,0-13.7,1.5-19.1,4.3
			c-0.9,0.5-1.9,0.4-2.7-0.2c-0.8-0.6-1.1-1.5-1-2.5h-40.2c-0.1,0-0.2,0-0.2,0c-0.1,0-0.2,0-0.2,0h-30.1c-0.8,0-1.5-0.3-1.9-0.9
			s-0.7-1.4-0.5-2.1l1-4.8c0.3-1.4,0.3-2.5,0-3.3c-0.3-0.8-0.2-1.8,0.4-2.5c0.6-0.8,1.1-1.8,1.3-3.1c0.7-3.2,0.9-5.4-0.2-6.7
			c-1.2-1.5-3.9-1.6-6.3-1.6H74.7c-0.3,0.4-0.6,0.7-1,0.9c-0.7,0.3-1.5,0.3-2.2,0c-1.4-0.8-3.4-0.8-4.8-0.8H7.6l-2.3,26.8h20.6
			c0.7,0,1.4,0.3,1.8,0.8c0.5,0.5,0.7,1.2,0.6,1.9l-7.6,87.4h205.1l0.2-1.1c0.2-0.8,0.8-1.5,1.6-1.8c0.8-0.3,1.7-0.1,2.4,0.4
			c3.5,2.8,8.1,4.2,13.6,4.2c3.1,0,6.2-0.5,9.2-1.5c0.3-0.1,0.5-0.1,0.8-0.1h26l0.1-0.4c0.2-0.8,0.7-1.5,1.5-1.8
			c0.7-0.3,1.6-0.3,2.3,0.2c5.4,3.3,12.4,3.7,17.2,3.7c9.5,0,17.2-2.1,23-6.3c0.7-0.5,1.6-0.6,2.4-0.3c0.8,0.3,1.4,1,1.5,1.9
			c0.2,1.1,2.8,1.4,3.5,1.4c1.2,0,2.2,0.8,2.4,1.9c0.9,0.4,1.5,1.2,1.5,2.1c0,0.4-0.1,0.9-0.2,1.2c5,0.3,8.7-2.7,9-2.9
			c0.8-0.7,2-0.8,3-0.2s1.4,1.7,1.1,2.8c0,0.1-0.9,4.2,3.5,10.2c1.6,2.1,2.5,4.1,2.9,5.9c0.7-2.4,0.5-4.5,0.4-5.2
			c-0.2-1.4,0.8-2.6,2.2-2.8C357.1,209,357.2,209,357.3,209z M395.1,238.9C395.1,238.9,395.1,238.9,395.1,238.9
			C395.1,238.9,395.1,238.9,395.1,238.9z M444.9,238.8C444.9,238.8,444.9,238.8,444.9,238.8C444.9,238.8,444.9,238.8,444.9,238.8z
			 M424.9,164.3C424.9,164.3,424.9,164.3,424.9,164.3C424.9,164.3,424.9,164.3,424.9,164.3z M454.6,126.6
			C454.6,126.6,454.6,126.6,454.6,126.6L454.6,126.6z" />
    </g>
    <path fill-rule="evenodd" clip-rule="evenodd" fill="#663390" d="M288.2,147.9c1.8,4.4,4.7,7.4,7.5,9.7h-9.6L288.2,147.9
		L288.2,147.9z" />
    <path fill-rule="evenodd" clip-rule="evenodd" d="M288.8,107.3c0.2-0.1,0.3-0.1,0.3-0.1c-0.2-0.1-0.4-0.1-0.6-0.2
		c-6.1-4.9-14.4-5.5-20.5-5.5c-7.8,0-14.5,1.6-20.2,4.6l0.6-3h-43.3l-0.1-1.8l-0.4,1.8h-7.7h-13.3h-6.1h-2.9l1-4.8
		c0.4-2,0.3-3.6-0.2-4.8c0.9-1.1,1.5-2.5,1.8-4.1c0.7-3.2,1.2-6.5-0.7-8.8c-1.9-2.3-5.3-2.5-8.3-2.5h-4.8h-5.2h-6.8h-5.8h-9.4h-5.8
		h-8.1h-1h-1.5h-5.2h-6.5H102H90.7h-6.1H72.8l-0.2,1.1c-1.8-1-4.1-1.1-6-1.1h-5.9h-5.1h-8.8h-1h-5h-1.8H28.8h-3.3H5.3l-2.8,31.8
		h12.3h3h8.1L18,200.1h42h3.3h22.5h13.3h38.2h19.8h5.9h13.3h51.5l0.7-3.1c3.2,2.6,8,4.8,15.2,4.8c3.4,0,6.8-0.6,10-1.6h28.1l0.5-2.4
		c5.8,3.6,13,4.1,18.5,4.1c11,0,18.8-2.7,24.5-6.8c0.6,3.5,6,3.5,6,3.5c-1.6,0.6-4.3-0.1-4.3-0.1c2.1,1.6,5.8,1.8,5.8,1.8
		c-4.3,0.9-9.6-2.7-9.6-2.7c11.1,12.3,22.4,2.8,22.4,2.8s-1.4,5.1,3.9,12.3c5.3,7.2,1.7,12.7,1.7,12.7c6.9-4.5,6.3-12.4,6.1-13.8
		c0.8,6,7.8,14.1,8.7,24.5c0.6,7.5-3.2,15.4-3.2,15.4c4.5,0.4,6.9-3.9,6.9-3.9l-0.2,1.7c2-1.2,3-3.8,3-3.8c4-2.2,4.6-8.9,4.6-8.9
		c2.2-3,1.6-6.8,1.6-6.8c1.1-3.4-0.2-8.8-1.9-12.4c-1.7-3.6-4-9.7-4-9.7c4.7,3.5,10.6,5,10.6,5l1.1-0.8c-1.9-3.6-4-15.6-4-15.6
		c2.1,4.2,6.3,8.3,6.3,8.3s10.1,11.4,10.8,21c0.7,9.6-2.5,15.7-2.5,15.7c0.8,0.3,1.5-0.2,1.5-0.2c-0.5,1-1.8,2.4-1.8,2.4
		c5.1-2,9.5-12.3,9.5-12.3c0.2,1.7,1.4,2.7,1.4,2.7c-0.2-1.5,0.6-5.1,0.6-5.1l0.5,0.7c0.6-2.1,0.5-6.6,0.5-6.6
		c5,4.6,12.7,6.5,12.7,6.5c3.6,3,8.6,2.2,8.6,2.2c5.2,10.6,0.5,14.3,0.5,14.3c1.7,0.1,3.1-2,3.1-2c1.2,0,2.4-1.6,2.4-1.6
		c0.8-0.1,1.7-0.8,1.7-0.8c-0.6,2.8,0.5,4.1,0.5,4.1c0.1-2,3.1-7.2,3.1-7.2c1.1,2.6,3.3,2.5,3.3,2.5c-1.7-1.6,4.6-14.7,1.9-27
		c-2.7-12.3-14.9-20.8-14.9-20.8c2.7-1.1,5.1-6.4,3.5-9c-1.5-2.7-5.6-4-5.6-4c0.5-2.9-1.7-5.1-2.2-5.1c-0.5,0-1.6,0.6-1.6,0.6
		c-2.3-1.2-0.8-8.7-0.8-8.7c0.8,0.5,4,0.9,6.1-0.9c2.1-1.9,1.6-5.7,1.6-5.7l0.6,0.2c0,0-0.6,0.4,0.1,0.5c0.7,0.1,2.3,0.3,2.3,0.3
		s-1.1,0.6-0.5,0.7c0.6,0,1.2,0,1.2,0s-0.5,0.4,0.2,0.4c0.7,0,1.6-0.5,1.6-0.5s-0.7,0.6-0.1,0.6c0.6,0,2.4-1.1,2.4-1.1s-1,1-0.5,0.8
		c0.5-0.1,1.8-0.8,1.8-0.8s-2.3,2.8-1.6,2.8c0.6,0,1.5-0.7,1.5-0.7l-0.2,0.8c6.3-1.7,8.6-9.7,8.6-9.7c3.4-0.3,5-2.2,5.7-3.9
		c0.6-1.3,0.8-3.3,0.9-3.8c0.1-5-4.4-17.3-4.4-17.3s2.6,1.9,5.5-0.6c2.9-2.6,2.9-24.4,2.2-25.7c-0.6-1.3-4.5-3.5-4.5-3.5
		c-21.5-68.1-70.3-78.4-70.3-78.4c-10.6,3.2-32.1,26-32.1,26s-3.2,1.3-12.2,1.9c-9,0.6-16.4-2.6-16.4-2.6
		C298,34,310.2,2.5,310.2,2.5S288.9,13,290,43.4c1.1,31.5,30.2,41,30.2,41l-4.4,6.5l0.9,1c-1.7,0.3-3.2,2.2-6.6,2.5
		c-3.4,0.3-6.6-3.8-6.6-3.8c-1.5,7.5,7.7,9,7.7,9c-1,0.8-3.4,2.6-7.6,2.6c-5.2,0-8.7-4.4-8.7-4.4c0,4,2.3,6.8,4.2,8.5
		c-2.5,1.4-4.7,3-6.7,4.9c-0.3-0.4-0.6-0.9-0.9-1.3C290.5,108.9,289.7,108.1,288.8,107.3L288.8,107.3z M332.1,188
		c0.6-0.1,1.1-0.3,1.1-0.3l-1,1.1c3.8-0.1,6.2-3.1,6.2-3.1c-1.8,13.7-10.2,8.1-10.2,8.1c1,1.7,3.2,2.5,3.2,2.5
		c-0.7,0.6-1.5,0.8-3.1,0.5c-1.2-0.2-2.4-1.5-2.9-2.1C328.1,192.8,330.3,190.5,332.1,188L332.1,188z M337.4,151
		c0.2-2.2,0.6-4.3,1.3-6.3h2.5c-0.6,3.2-0.7,7.2,0.1,11.7c2.3,12.1-0.6,21-3.1,23.3c0,0,1.4-5.7,0.9-12.7
		C339.6,161,339.1,155.7,337.4,151L337.4,151z M346,121.1c0.8-0.4,1.6-0.8,2.4-1.1c0,0-0.4,6.4-1.9,7.9c0,0-0.2,0.1-0.6,0.4
		C346.1,126,346.2,123.5,346,121.1L346,121.1z M345,115.7c2.7-1.2,4.8-1.6,4.8-1.6l-0.5,2c-1.3,0.5-2.5,1.1-3.7,1.7
		C345.4,117.1,345.3,116.4,345,115.7L345,115.7z M337.2,105.4c3.9,1.2,5.9,3.6,5.9,3.6c-0.7-0.3-1.5-0.6-2.3-0.7
		C339.7,107.2,338.5,106.2,337.2,105.4L337.2,105.4z M453.4,147.6c-1,3.3-3.3,5.2-5,4.9c-1.7-0.3-5.4-2.1-6-2.7
		c-0.7-0.7-3-7.8-4.5-9.1c0,0,0.2,0.8,0.1,1.4c0,0-3.3-1.1-5.4-1.6c-2.1-0.5-2.1-0.4-2.9-1.6c-0.8-1.1-1.1-2.5,0.2-4.4
		c0,0,1.1-1.1,1.8-1.2c0.7-0.1,2.7,0.5,2.7,0.5s-0.9,0.8-0.8,1.2c0,0,0.5-0.2,1-0.4c0,0,1.6-1,3.7-1.2c0,0-0.7,0.5-1,1.1
		c0,0,1.3-0.9,3.3-1c0,0-0.8,0.4-1.1,1.1c0,0,1-0.4,2.4-0.3c0,0,0.9,3.7,1.2,4.2c0.4,0.5,0.7,0.7,0.7,0.7l-0.1,1.1l1.1-0.2l-0.5,0.9
		l1-0.1c0,0-0.6,1.3-0.4,1.1c0.2-0.1,0.9-0.2,0.9-0.1c0,0.2-0.3,1-0.3,1l0.8,0.2c0,0-0.4,0.7-0.2,0.7c0.2-0.1,0.9-0.1,0.9-0.1
		l0.5-0.8l-1.1-0.4l0.5-1.2l-0.9-0.1c0,0,0.7-1.5,0.6-1.3c-0.1,0.2-0.8,0.1-0.8,0.1s0.9-1.5,0.6-1.4c-0.3,0.1-1.7,0.3-1.7,0.3
		s-2.3-4-0.5-7c0,0,0.2-1.6,2.1-2.3c1.9-0.7,2.7-0.5,3,0C449.6,130.2,454.4,144.3,453.4,147.6L453.4,147.6z M430.5,162.6
		c-0.7,2.9-2.7,3.4-4.1,3.7c-1.4,0.2-3.1-0.6-3.7-1.1c-0.7-0.5-0.2-2.5-0.2-2.5s-0.6,1.1-1.1,1.6c-0.5,0.5-5.2-0.2-6.9-0.5
		c-1.7-0.4-1.7-1.9-1.7-1.9c-0.2,0.7-0.5,1.1-0.5,1.1c-2.8,2.4-6.6-1.4-6.6-1.4c-1.8,1.9-4.1,0.4-4.1,0.4c0.6-2.7,1.9-7.2,1.9-7.2
		s0.4-0.8,3.1-2c1.9-0.8,4.6-0.1,6,0.5c-0.1,1.3,0.1,3.9,2.6,5c0,0-1.2-4,4.2-4.4c1.6,0.1,3,0.6,3,0.6s-1.8,0-1,0.5
		c0.9,0.5,3.4,0.8,3.4,0.8c0,0.5,0.6,1,0.6,1c0.7-0.7,3.7,0,3.7,0s-1.1,0.4-0.7,0.6c0.3,0.2,1.3,0.1,1.3,0.1s1.1-0.9,0.2,0
		c-0.9,0.9-3.1,1.5-3.1,1.5c0.6,0.4,2.5,0.6,2.5,0.6l-0.3,0.7c0.6-0.4,1.9-0.7,1.9-0.7S431.2,159.7,430.5,162.6L430.5,162.6z
		 M418.1,168.6l1.6-1.2l-1.7,0.5l1.6-1.1l-1.2,0.2l1.6-0.9l-2.1,0.4l2.3-0.9c0,0,0.9,0,1.6-0.4c0,0,0.1,0.4,0.9,1.1
		c0,0-0.8,4.7-0.3,7.6c0,0,0.1,0.6-0.6,0.6c-0.7,0-2.1,1.1-2.1,1.1l0.7-1.2l-0.7,0c0,0,0.7-0.7,0.5-0.7c-0.1,0-0.9,0.1-0.9,0.1
		s0.8-0.8,0.7-0.8c-0.1,0-0.9-0.2-0.9-0.2s1.1-0.7,1-0.7c-0.1,0-1.6,0.3-1.6,0.3l1.6-1h-1.8c0,0,1.8-0.9,1.6-0.9
		c-0.1,0-1.1,0.1-1.1,0.1s1.3-0.7,1.2-0.7h-1.4c0,0,1.5-0.8,1.3-0.8c-0.2,0-2.3,0.5-2.3,0.5s2.3-1.4,2.1-1.4
		C419.7,168.2,418.1,168.6,418.1,168.6L418.1,168.6z M424.4,176.2c0,0,0.8-1,1.4-0.7c0.6,0.3,2.7,2.7,1.1,6.2c0,0-1.8-0.6-2.4-1.9
		c0,0-0.1,3.7-1.2,3.9c-1.2,0.2-3.4-3.1-3.4-3.1s-0.6,4.5-3,4.3c-2.4-0.2-3.1-2.9-3.1-2.9s-0.9,2.2-1.5,2.4c-0.7,0.3-1.8,0.1-2.5-2
		c0,0-1.6,2.4-4.5,1.6c-2.9-0.8-3.7-2.9-4-3.6c0,0-0.9,1.5-2.2,1.9c0,0-0.8-5.2,0.3-9.2c0,0,2.2,0.6,2.9,2.1c0,0,2.8-2.7,6.9,2.7
		c0,0,1.5-2.6,3.9-1.2c0,0,3.4-2,6.3,0.2C419.7,176.8,422.1,174,424.4,176.2L424.4,176.2z M431.2,184.3c1.5,1.2,2.5,8.4-8.9,9
		c0,0,1.8,1.6,6,0.5c0,0,1.4,0.7,1.7,2.2c0,0-2.6,1.2-3.7,8.9c0,0-2.4-5.5-3-6c-0.7-0.5-0.9,7.6-0.9,7.6s-1.2-4.1-1.8-4.3
		c-0.5-0.1-0.5,3.5-0.5,3.5s-1.7-3.6-2.5-3.7c-0.8-0.1-0.3,3.7-0.3,3.7s-6.9-6.5-11-8.4c0,0,0.7,0.6,0.8,1.7
		c0.2,1.1,0.3,2.8,0.3,2.8s-7.2-7.8-5.9-9.9c1.3-2.2,4.1,1.7,6.6,0.1c0,0-8.8-2.2-9-7.9c0,0,10.9,4.2,19.4,2.6
		C427.1,185,429.7,183.1,431.2,184.3L431.2,184.3z M374.2,213.7c0,0-3.7-4.3-7.5-9c0,0,3.7,1.9,4.5,2.3
		C371.2,207,372.8,211.3,374.2,213.7L374.2,213.7z M375.2,226.5c0,0-3.5-7.4-6.7-10.6c-4.2-4-6.1-7.7-6.5-13.2c0,0,2.5,5.1,6.7,8.8
		C372.8,215.3,375.4,222.3,375.2,226.5L375.2,226.5z M374.9,236.1c0,0-1.7-8-6.2-13.2c-4.5-5.1-7.9-9.5-7.5-17.4
		c0,0,1.4,7.2,6.9,12.5C372.6,222.3,376.7,230,374.9,236.1L374.9,236.1z M371,246.3c0,0,1.8-9.8-2.9-18.1c-4.7-8.4-4.8-6.6-6.7-13.6
		c0,0,1.9,4.3,4.6,7.3c0,0,5.4,6,6.6,11.2C373.9,238.1,372.8,243.6,371,246.3L371,246.3z M355.3,210.7c0.7,4.5,0.3,8.7-1.2,9.9
		c0,0,1.2-4.8-0.4-8.8c-2-4.9-1.1-10.6,0.1-14.7c0,0,3.1,2.4,3.9,2.9C357.7,199.9,354.6,206.2,355.3,210.7L355.3,210.7z
		 M350.2,193.5c0,0,2.5,2.4,2.2,2.4c0,0-3.7,8.5,0.7,18.1C353,214,345.9,205.8,350.2,193.5L350.2,193.5z M296.7,56.2
		c-7-16.9-0.9-27.6-0.9-27.6s-0.1,13.4,11,20.2c0,0,4.9,13.8,26.8,20.5c21.8,6.7,33.3-6.2,51.6,5.8c0,0,1.6,1.1,0.1,2.9
		c0,0-6.4-4-13-2.4c-6.6,1.6-21.7,5.4-30.8,0.4c0,0,5.8,6.2,23.8,3.9c0,0-10.8,15.4-46.6-8.2c0,0,3.1,0.9,4.4,1.1
		c0,0-16.1-8.3-23.8-22.3c0,0-0.9,9.2,23.3,28.6C322.7,79.1,303.7,73.1,296.7,56.2L296.7,56.2z M303.9,12.6c0,0-6.4,19.7,9.4,36.5
		c0,0-10.7-4-13.6-19.7C299.7,29.5,298.2,19.6,303.9,12.6L303.9,12.6z M335,51.4c21.5,0.7,23.4-4.1,37.5-0.7c0,0-10.3,0.4-22.9,3.1
		c-12.6,2.7-34.5,7.4-42.4-19.9C307.1,33.9,313,50.8,335,51.4L335,51.4z M375.8,85.8c-8.4,3.2-15.5,0.4-15.5,0.4
		c3.3,0.1,11.2-8,18.3-6.8C383.7,80.3,384.2,82.6,375.8,85.8L375.8,85.8z M417.3,117.1c-3.2-0.8-7.7-6.4-7.7-6.4
		c1.6,0,3,0.1,4.2,0.3c0.9,0.4,2,0.8,3.1,1.4c-0.4,0.2-0.7,0.6-1,1.1C415.6,114.7,417.3,117.1,417.3,117.1L417.3,117.1z
		 M420.3,115.1c0.1,1.3,1.1,2.8,3.8,2.9c0,0-3.1,0.6-5.1-1.1c-1.7-1.5-2.1-3.3-1-4.2c0.8,0.4,1.6,0.8,2.5,1.3
		C420.4,114.4,420.3,114.8,420.3,115.1L420.3,115.1z M382.3,56.6C389,60,388,67.3,388,67.3c-0.4,0-9.8-5-21.8-1.7
		c-10.7,2.8-34.4,3.7-48.2-9.9c0,0,13.2,5.5,28.5,1.9c15.3-3.6,22.5-7.4,29.8-4.3c0,0-8.8,1.2-13.8,6.3
		C362.5,59.6,375.7,53.3,382.3,56.6L382.3,56.6z M341.4,88.7c1.6,0.4,7-0.4,7-0.4c-5.5-1.5-9.5-4.4-9.5-4.4
		c7.4,3.7,18.2,2.7,18.2,2.7c-1.7,1.2-4.7,1.6-4.7,1.6C365.1,92.9,379,87,379,87C366.6,95.7,341.4,88.7,341.4,88.7L341.4,88.7z
		 M427.2,130.2c-0.2,0.7-2.6,1.7-3.2,1.9c-1.4-1.4-5.3-1.5-7.7-1.9c-3.1-0.6-3.6-2-3.6-2c-0.2,1.2,1.2,2.4,2.4,3.1
		c-7.9-1.3-12.3,1.7-13.7,3.2c-1.8,2-4.9,3.5-4.9,3.5c2,0.3,4.8-1.4,4.8-1.4c-8.8,6.7-23.2,35.3-23.2,35.3l-0.3-16
		c1.5-1.7,5-5.5,7.3-9.2c2.2-3.8,6.9-7.4,6.9-7.4s-1.3,0.7-3.1,1.8c-1.8,1.1-3.5,1.4-3.5,1.4c-1.1,3.1-7.3,7.8-7.8,5.9
		c-0.6-2,1.8-23.4,1.8-23.4l-2-1c-1,1.4-3.1,2.7-3.6,2.4c-0.6-0.3-2.7-3.6,1.3-9.2c3.9-5.6,9.9-6.7,9.9-6.7L384,112
		c1-0.4,4.1-1.8,4.1-1.8l-1.7,1.7c2-0.8,7.1-2.7,7.1-2.7c-1.4,0.7-2.9,2.8-2.9,2.8c5.5-2.9,9.4-3.1,9.4-3.1c-0.8,0.1-1.3,1-1.3,1
		c2.4-0.6,4.9,0.6,4.9,0.6c2.7,3.5,12,8.4,12,8.4c-5.6,0.8-12.5-3.4-12.5-3.4s1.4,2.1,2,2.4c0.6,0.3-1.7,1.3-1.7,1.3
		c-0.1,1.3-3.5,1.5-3.5,1.5c-0.6,1.1-4.2,1-4.2,1c2.2,1,6-0.1,6-0.1c3.1,0.6,5.3-0.6,5.3-0.6s-1.3-0.1-1.7-0.7
		c-0.4-0.6,2.8-0.8,2.8-0.8c3.2,1.1,10.2,1.3,11.1,1.4c0.8,0.1,4.6,1,2.2,2.7c-2.4,1.7-8.8,0.7-8.8,0.7c-1.8,2.2-7.1,4.2-7.1,4.2
		c-0.7,1.3-2.1,2.1-2.1,2.1c3.2-0.1,11.8-5,11.8-5c3.2,0.7,8.4-0.7,8.4-0.7c2.4,2,10.4,2,10.4,2c-0.3,1.1-1.8,1.8-1.8,1.8
		c1.3,0.1,2.7-0.1,2.7-0.1C433.5,129.9,427.2,130.2,427.2,130.2L427.2,130.2z M431,132.9C431,132.9,431,132.9,431,132.9
		C431,132.9,431,132.9,431,132.9L431,132.9z M431,132.9c-0.6,0.2-1.7,1.1-1.7,1.1s-0.5-0.2-1.5-0.5c-0.9-0.3-2.7-1.2-2.7-1.2
		c1.6,0.6,4.5,0,4.5,0s-0.5,0.3-0.2,0.6C429.9,133.2,430.8,133,431,132.9L431,132.9z M73.7,188.5h19.8l16.6-78H90.3L73.7,188.5
		L73.7,188.5z M30.4,188.5h28.2l27.1-78H67.4l-15.7,48.1l5.4-48.1H37.2L30.4,188.5L30.4,188.5z M163.5,110.5H145l-16,30.8l6.2-30.8
		h-19.2l-16.6,78h19.2l7.3-32.5l1.6,32.5h19.8l1-4.7l-3.8-39.1L163.5,110.5L163.5,110.5z M151.4,188.5h19.4l16.6-78h-19.8l-0.1,0.1
		L151.4,188.5L151.4,188.5z M205.4,188.5h16.9l16.6-78h-16.8l-8.6,40.1l-3.4-40.1h-16.9l-16.6,78h16.8l9.7-43.3L205.4,188.5
		L205.4,188.5z M251.1,114.5c-2.8,2.1-5.1,4.8-6.8,7.9c-1.9,3.4-3.2,7.1-4,10.9l-7.4,34.5c-0.7,2.9-1,5.9-0.9,8.9
		c0,3.3,1,6.5,2.9,9.2c2.3,3.1,6.9,4.3,10.8,4.2c7.1-0.1,11.4-2.8,17.2-7.2l0.3,5.5h13l8.9-41.9h-24l-2.3,10.9h4.2l-2.9,13.7
		c-0.5,3.1-1.7,5.7-4.8,5.7c-1,0.1-2-0.4-2.7-1.2c-1.3-1.6-0.7-3.7-0.4-5.5l9.1-42.9c0.7-3.6,1.5-5.3,4.8-5.7c1.3,0.2,2,0.8,2.7,1.7
		c0.5,4.8-1.4,11.1-2.6,15.7h19.8c0.9-4,1.6-8,2.1-12c1-7.8-0.4-15.7-8.9-17.2C268.8,108,259.7,108.5,251.1,114.5L251.1,114.5z
		 M287.1,185.5c1.8,2,4.1,3.3,6.8,3.8c3.8,0.7,5.3,0.8,9.2,0.9c6.2,0.3,12.3-1.2,17.7-4.2c9.8-5.8,12.2-20.1,11-30.1
		c-0.7-5.3-3.6-10.1-8-13.3c-2.7-1.9-5.4-3.9-8.1-5.9c-1-0.8-1.9-1.8-2.5-3c-1.3-2.7-0.3-4.3,0.1-6.9c0.4-2.6,1.4-5.7,4.6-5.8
		c2.7-0.1,3.9,2.3,3.6,4.5c-0.2,1.5-1.3,5.4-1.8,7.5h17.7c1-4.6,1.8-9.9,1.3-14.7c-0.5-4.8-4-8.1-8.7-8.8
		c-8.9-1.4-18.5-1.4-26.2,3.8c-5,3.6-8.3,8.9-9.3,15c-2.4,12.8-0.4,18,9,25.2l6.8,6.4c2.9,4.8,2.1,10.1,0.1,15.4
		c-0.6,1.6-2.2,2.5-3.8,2.4c-3.1-0.1-3.2-3.4-3-5.6c0.2-2.5,1.9-8.8,2.7-12.1h-18.4l-2.1,10c-0.6,2.5-0.8,5-0.8,7.5
		C284.7,180.6,285.5,183.2,287.1,185.5L287.1,185.5z" />
    <path fill-rule="evenodd" clip-rule="evenodd" d="M411.5,192.5c0,0,1.6,1.4,2.9,1.6c1.3,0.2,2.8-0.8,2.8-0.8
		S412.6,193.1,411.5,192.5L411.5,192.5z" />
    <path fill-rule="evenodd" clip-rule="evenodd" fill="#B5B5B6" d="M379.2,27.6c2.9-1.6,5.6-5.1,5.6-5.1s41.6,12.7,64.5,72.8l-4.2-3
		c0,0-17.5-38.2-24.5-36.5c0,0-0.4,0.7-0.1,2.7c0,0-14.1-15.1-19-17.1c0,0,2.4,0.1,3.3-0.9c0.5-0.6-1.6-4.9-5.4-8.2
		c-3-2.6-10.1-6.2-11.6-3.5c0,0-3.9-1.6-13.2,3.9C374.6,32.6,376.3,29.2,379.2,27.6L379.2,27.6z" />
    <path fill-rule="evenodd" clip-rule="evenodd" fill="#B5B5B6" d="M390.5,32c0,0-1.2-1.8-1-2.6c0.1-0.8,7.3,0.9,12.7,7.2
		c0,0,1.8,2.2,1.2,2.7c-0.7,0.5-5-0.8-6.9,1c0,0,18.2,8.5,26.8,25.1c0,0-1.1-5.1,0.1-5c2.7,0.3,15.2,20.3,18.5,29.6
		c0,0-10.2-18.6-13.7-20.9c0,0,10.5,16.4,9.7,17.3c-0.8,0.9-2.7,0-7.3-2c-4.8-2.1-9.8-3.9-9.8-3.9S408,61.3,405,58.5
		c0,0-2.6-1.7,0.3-1.4c2.9,0.3,5.9-5.1-18.5-19.8c0,0,7.6,6,12.9,10.6c2.6,2.3,7,8,3.9,7.5c-2.1-0.4-2.4,0.8-1.6,2.2
		c0.8,1.4,13.5,15.1,14.4,21.7c0,0-10.1-3.7-16.9-4.7c0,0,0.1-9.9-4.2-16.4c0,0-3.5-18.2-23.3-19.8C372,38.5,383,26.2,390.5,32
		L390.5,32z" />
    <path fill-rule="evenodd" clip-rule="evenodd" fill="#B5B5B6" d="M340.2,96.4l-1.8,1.1c-2.1-0.1-5.9-1-5.9-1
		c-0.1-1.4,5.5-5.4,5.8-5.4c1.8,0,7.9,1.5,7.9,1.5s-2.4,0.9-4.5,2.2c-2.1,1.2-4.2,1.7-4.2,1.7C338.5,96.8,340.2,96.4,340.2,96.4
		L340.2,96.4z" />
    <path fill-rule="evenodd" clip-rule="evenodd" fill="#B5B5B6" d="M323.7,92.7c0,0,1.2-3,5.2-4.9c0,0,2.9,1.2,5.8,2.1
		C334.7,90,330,92.9,323.7,92.7L323.7,92.7z" />
    <path fill-rule="evenodd" clip-rule="evenodd" fill="#B5B5B6" d="M390.7,73.6c0.5-0.6,0.9-1.2,1.2-1.9c1.2,0.1,1.9,1.3,2.7,4.8
		c0.4,1.7,0.3,3.2,0.2,4.4c-0.9,1.6-1.7,2.5-2.1,2.7c-0.9,0.7-1.8-2.1-1.6-4.1C391.2,77.8,390.7,73.6,390.7,73.6L390.7,73.6z" />
    <path fill-rule="evenodd" clip-rule="evenodd" fill="#B5B5B6" d="M396.5,76.1c-0.9-0.2-1.9-2.8-2.3-3.8c-0.4-1.2,0-3.9-0.4-5.8
		c-0.2-0.9-0.6-2.2-1-3.2c-0.7-3.9-2.5-6.9-2.5-6.9c3.1,1.5,5.8,9.6,5.8,9.6C397.2,70,397.1,73.4,396.5,76.1L396.5,76.1z" />
    <path fill-rule="evenodd" clip-rule="evenodd" fill="#B5B5B6" d="M390.5,52.1c-0.9,0.5-2.7-0.8-2.7-0.8c-1.8-3.4-5.4-6.4-5.4-6.4
		C386.3,45.8,391.4,51.6,390.5,52.1L390.5,52.1z" />
    <path fill-rule="evenodd" clip-rule="evenodd" fill="#B5B5B6" d="M387.1,54.1c2.1,1.4,7.2,12.8,3.7,17.9c0,0-0.9-13.5-7.7-18.6
		C383,53.4,385,52.6,387.1,54.1L387.1,54.1z" />
    <path fill-rule="evenodd" clip-rule="evenodd" fill="#B5B5B6" d="M389.2,82.2c1,0.8,0.1,7.1-2.1,9.2c-2.2,2.2-6.5,4.3-9.7,3.9
		c0,0-1.5,0.1-1.6-1.4c-0.1-1.6,2.4-1.4,6.2-4.3c0,0-1.5,1-2.6,0.5c0,0,5.3-3.9,7.5-6.9C386.9,83.2,388.1,81.4,389.2,82.2
		L389.2,82.2z" />
    <path fill-rule="evenodd" clip-rule="evenodd" fill="#B5B5B6" d="M359.7,93.9c2.8-0.8,8.7-0.5,8.6,0.3c-0.1,0.8,1.8,1,3.1,0.8
		c1.3-0.2,1,2.9-2.9,3.6c-3.9,0.7-2.2,1.2-5,1.4c-2.9,0.2-5.3-1.6-5.3-1.6C355,96.5,356.9,94.7,359.7,93.9L359.7,93.9z" />
    <path fill-rule="evenodd" clip-rule="evenodd" fill="#B5B5B6" d="M383.5,48.3c0,0-7.3-4.1-12.6-3.5c0,0,2.9,0.5,4.3,1.4
		c0,0-3.1-0.7-5.4-0.3c0,0-2.1-0.8-5.4-0.5C364.6,45.4,374,36.4,383.5,48.3L383.5,48.3z" />
    <path fill-rule="evenodd" clip-rule="evenodd" fill="#B5B5B6" d="M455.8,126c-0.3-0.9-0.5-5.5-0.3-7.6c0.2-2-0.8-15-0.8-15
		C457.6,107.7,455.8,126,455.8,126L455.8,126z" />
    <path fill-rule="evenodd" clip-rule="evenodd" fill="#B5B5B6" d="M445.6,116.1c0.5-0.3,2.4-3.7,3-3.3c0.5,0.3,0.2,9,1.1,12.5
		c0.2,0.6,0.4,1.1,0.4,1.1c-1.5,0-8.9-2.8-12.8-5.4c-0.7-0.5-6.1-4-6.1-4c1.9,0.6,5.2,2.3,5.2,2.3c-1.6-1.7-6.1-7.8-5.8-7.8
		c0.5,0,0.9,0.1,1.4,0.3c-0.5-0.8-1.1-1.7-1.6-2.6c-8.4-15-8-17.3-8-17.3s1.2-5.1-0.3-7.7c0,0,16.4,6.6,22,9.9c0,0,4.2,15,1,21.1
		C445.1,115.2,445.1,116.4,445.6,116.1L445.6,116.1z" />
    <path fill-rule="evenodd" clip-rule="evenodd" fill="#B5B5B6" d="M400.8,86.8c-1.7-0.3,3-2.3,1.9-9.1c0,0,8.9,1.9,15.2,4.5
		c0,0,4.4,6.8,0.4,8c0,0,4.9,7.9,5.1,12.6c0.2,4.7,1.9,9.4,1.9,9.4s-18.1-9.8-32.6-8.6c0,0,7.5-8.9,8.7-12.2
		C402.5,88.2,402.5,87.1,400.8,86.8L400.8,86.8z" />
    <path fill-rule="evenodd" clip-rule="evenodd" fill="#B5B5B6" d="M399,88.5c-0.2,1.6-5.4,12.4-13.4,16.4c0,0,5.2-5.9,7-9.1
		c1.7-3.1,4.2-6.8,4.9-7.7C397.5,88.1,399.2,86.9,399,88.5L399,88.5z" />
    <path fill-rule="evenodd" clip-rule="evenodd" fill="#B5B5B6" d="M395.7,88c0,0-3.5,5.6-6.5,9.6c-3,4-5.9,7.7-9.8,9.8
		c0,0,5.2-7.3,9.1-11.9C392.4,90.9,395.7,88,395.7,88L395.7,88z" />
    <path fill-rule="evenodd" clip-rule="evenodd" fill="#B5B5B6" d="M373.7,102.6c0,0,4.4,0,9.6-4.2c0,0-9.9,10.3-8.4,10.6
		c0.4,0.1,1.1,0.1,1.8,0c-1.7,1-5.5,3-9.4,4.4C368.7,110.5,370.9,106.1,373.7,102.6L373.7,102.6z" />
    <path fill-rule="evenodd" clip-rule="evenodd" fill="#B5B5B6" d="M451.9,124.3c-0.9-3.5,0-19-3.7-14.5c0,0,0.2-10.3-1.4-14
		c0,0,4.9,3,5.8,3.8c0,0,2.1,16.4,1.9,22.2c-0.2,5.8,1.7,5.1,0.9,5.6C454.5,127.9,452.8,127.8,451.9,124.3L451.9,124.3z" />
    <path fill-rule="evenodd" clip-rule="evenodd" fill="#B5B5B6" d="M355,133.6c-1.2-2-2-1.2-2-1.2s0.3-5.9,0.7-7.8c0,0,1,8.8,5,14
		C358.6,138.6,356.2,135.5,355,133.6L355,133.6z" />
    <path fill-rule="evenodd" clip-rule="evenodd" fill="#B5B5B6" d="M356.7,137.7c0,0-1.6-1.5-2.6-2.1c-1-0.6-1.6,0.1-1.6,0.1l0.2-1.8
		C353.6,133.3,356.7,137.7,356.7,137.7L356.7,137.7z" />
    <path fill-rule="evenodd" clip-rule="evenodd" fill="#B5B5B6" d="M354.5,177.8l-3.9-3.6c0,0-0.4-2.1-0.3-4.8
		C350.3,169.3,351.2,173.4,354.5,177.8L354.5,177.8z" />
    <path fill-rule="evenodd" clip-rule="evenodd" fill="#B5B5B6" d="M351.6,156c0.7,3.1,3.1,7.2,3.1,7.2c-2.5-2.9-3.5-3.6-3.5-3.6
		C350.8,157.7,351.6,156,351.6,156L351.6,156z" />
    <path fill-rule="evenodd" clip-rule="evenodd" fill="#B5B5B6" d="M382.7,209.9l-0.9,0.8c-22.9-10.2-31.2-21.7-31.2-21.7
		c-6-8-5.6-17.9-5.6-17.9c1.1-18,5-48,5.9-55.3c0.8-7.4,1.9-11.3,2.6-12.1c0.8-0.8-0.3-0.4-0.9-0.8c-0.5-0.4,0-1.1,0.3-1.5
		c0.3-0.5,2.1,0.2,2.1,0.2c-1.5,7-4.3,39.9-4.3,39.9c0.7,1.3,1.9,2.1,1.9,2.1s-1.4-3.2-0.4-6c1-2.9,4.2,0.5,7,5.3
		c2.8,4.7,10.2,19.1,9.2,19.5c-0.9,0.5-4.8-1.8-8.4-7.5c-2.9-4.6-5.9-8-5.9-8c3.3,4.6,13,23.6,14.9,29c1.9,5.3-1.6,2-1.6,2
		c-15.9-15.2-15.5-25.2-15.5-25.2c-2.4,3.6-3.2,11.9-2.8,21.4c0.4,9.5,4.9,12.6,4.9,12.6c-4-5.3-3.3-10.6-3.3-10.6
		c3.7,2.7,18.9,21.4,18.3,22.2c-0.6,0.9-9.1-5-9.1-5c2.7,2.9,15.3,10.2,15.3,10.2s0.4-0.6-0.2-0.9c-0.5-0.2-0.6-1.1-0.6-1.1
		c-5.4-7.8-1-70.4-1-70.4l-0.9-0.5c0,0-1.8,0.7-2.7,0.8c-0.9,0.1-1.5-0.9-1.5-0.9s-1.2,0-1,0.2c4.3,4.3,4.5,10.3,4.5,10.3
		c-12.9-11.9-15.9-25.3-15.9-25.3c-1-5,0.2-10.3,1-10.8c0.8-0.5,1.6,1,2.4,3.1c0.8,2.1,2.2,1.4,2.7-1.1c0.5-2.5,1.5-4.3,1.5-4.3
		c2.6,0.2,3.2,0.1,3.2,0.1c-4,9.4-4.2,19.6-3.1,19.5c1.1-0.2,0.5,0.1,1.2,1.2c0.6,1.2,1.5,2.6,3.7,3.2c2.2,0.6,2.8,0.9,2.8,0.9
		c2.3,1.6,5.9-1.8,5.9-1.8l0.8,0.5c-2.3,22.1-3.2,44.6-3.2,44.6c0.5-2.9,1.4-2.1,1.4-2.1C375.1,188.9,382.7,209.9,382.7,209.9
		L382.7,209.9z" />
    <path fill-rule="evenodd" clip-rule="evenodd" fill="#B5B5B6" d="M367.9,142.7c1.5,2.7,3.3,8.8,3,9.5c-0.3,0.7-4.1,0-10.2-11.5
		c-6.2-11.5-6-16.5-6-16.5s4.4,1.7,11.3,14.1c0,0-3.5-4-5.4-5.7C360.5,132.6,366.4,140,367.9,142.7L367.9,142.7z" />
    <path fill-rule="evenodd" clip-rule="evenodd" fill="#B5B5B6" d="M350.9,166.4c-0.6-5.7,0.3-4.7,0.3-4.7s9.9,9.2,19,24.2
		c0,0-6-4.8-7.8-7.3c0,0,2.7,4.7,7.2,8.6c0,0,1,1.3,1.3,3.4c0.3,2.1,2.5,10.6-15.4-12C355.6,178.7,351.6,172.1,350.9,166.4
		L350.9,166.4z" />
    <polygon fill-rule="evenodd" clip-rule="evenodd" fill="#B5B5B6" points="7.5,105.9 16.9,105.9 25.6,80.7 19.4,80.7 15.3,94.4 
		14.6,94.3 16.5,80.7 9.7,80.7 7.5,105.9 	" />
    <path fill-rule="evenodd" clip-rule="evenodd" fill="#B5B5B6" d="M30.2,105.9h6.7l1.9-25.2h-9.5l-8.5,25.2h6.7l1.3-4.4h2.1
		L30.2,105.9L30.2,105.9z M31.7,96.8h-1.9l1.9-6.2l0.7,0.2L31.7,96.8L31.7,96.8z" />
    <polygon fill-rule="evenodd" clip-rule="evenodd" fill="#B5B5B6" points="47.1,105.9 52.8,105.9 58.2,80.7 52.5,80.7 49.9,92.2 
		49,80.7 43.3,80.7 37.9,105.9 43.6,105.9 46.5,92.9 47.1,105.9 	" />
    <path fill-rule="evenodd" clip-rule="evenodd" fill="#B5B5B6" d="M54.4,105.9h9.6c2.7,0,6.1-0.9,7-5L74,87.2
		c0.5-2.3,0.3-3.9-0.5-4.9c-0.9-1.1-2.5-1.5-5.4-1.5h-8.3L54.4,105.9L54.4,105.9z M63,101.4h-0.9l3.4-16.3h0.7
		c0.5,0,0.7,0.2,0.9,0.4c0.3,0.3,0.3,0.9,0.2,1.6l-2.7,12.4C64.4,100.7,63.7,101.4,63,101.4L63,101.4z" />
    <polygon fill-rule="evenodd" clip-rule="evenodd" fill="#B5B5B6" points="71.6,105.9 83.1,105.9 84.2,100.6 79.4,100.6 80.5,95.4 
		84.7,95.4 85.7,90.3 81.6,90.3 82.5,86 87,86 88.1,80.7 77,80.7 71.6,105.9 	" />
    <polygon fill-rule="evenodd" clip-rule="evenodd" fill="#B5B5B6" points="86.9,105.9 96.2,105.9 105,80.7 98.7,80.7 94.6,94.4 
		93.9,94.3 95.8,80.7 89.1,80.7 86.9,105.9 	" />
    <polygon fill-rule="evenodd" clip-rule="evenodd" fill="#B5B5B6" points="100.8,105.9 112.2,105.9 113.3,100.6 108.6,100.6 
		109.7,95.4 113.8,95.4 114.9,90.3 110.7,90.3 111.7,86 116.1,86 117.2,80.7 106.1,80.7 100.8,105.9 	" />
    <polygon fill-rule="evenodd" clip-rule="evenodd" fill="#B5B5B6" points="122.6,105.9 128.3,105.9 133.6,80.7 127.9,80.7 
		125.4,92.2 124.4,80.7 118.7,80.7 113.4,105.9 119.1,105.9 122,92.9 122.6,105.9 	" />
    <polygon fill-rule="evenodd" clip-rule="evenodd" fill="#B5B5B6" points="133,105.9 139.7,105.9 143.9,86 147.7,86 148.8,80.7 
		134.6,80.7 133.4,86 137.2,86 133,105.9 	" />
    <polygon fill-rule="evenodd" clip-rule="evenodd" fill="#B5B5B6" points="144.4,105.9 155.9,105.9 157,100.6 152.2,100.6 
		153.3,95.4 157.5,95.4 158.5,90.3 154.4,90.3 155.3,86 159.8,86 160.9,80.7 149.8,80.7 144.4,105.9 	" />
    <path fill-rule="evenodd" clip-rule="evenodd" fill="#B5B5B6" d="M165.7,105.9h6.3l1.9-8.9c0.5-2.2,0.1-3.5-1.3-4.1l-0.8-0.4
		l0.8-0.3c1.5-0.6,2.5-1.9,2.9-4.1c0.7-3.4,0.7-5.1-0.1-6.1c-0.8-0.9-2.4-1.3-5.7-1.3h-7.3l-5.4,25.2h6.5l2.4-11.5l0.2-0.1
		c0.2-0.1,0.3-0.1,0.4-0.1c0.4,0,0.8,0.1,1,0.4c0.3,0.4,0.3,0.9,0.2,1.7L165.7,105.9L165.7,105.9z M167.3,90.2h-0.5L168,85h0.3
		c0.4,0,1,0,1.3,0.4c0.2,0.3,0.3,0.7,0.2,1.2l-0.5,2.1C169.1,89.7,168.5,90.2,167.3,90.2L167.3,90.2z" />
    <path fill-rule="evenodd" clip-rule="evenodd" fill="#663390" d="M350.2,193.5c0,0,2.5,2.4,2.2,2.4c0,0-3.7,8.5,0.7,18.1
		C353,214,345.9,205.8,350.2,193.5L350.2,193.5z" />
    <path fill-rule="evenodd" clip-rule="evenodd" fill="#663390" d="M355.3,210.7c0.7,4.5,0.3,8.7-1.2,9.9c0,0,1.2-4.8-0.4-8.8
		c-2-4.9-1.1-10.6,0.1-14.7c0,0,3.1,2.4,3.9,2.9C357.7,199.9,354.6,206.2,355.3,210.7L355.3,210.7z" />
    <path fill-rule="evenodd" clip-rule="evenodd" fill="#663390" d="M371,246.3c0,0,1.8-9.8-2.9-18.1c-4.7-8.4-4.8-6.6-6.7-13.6
		c0,0,1.9,4.3,4.6,7.3c0,0,5.4,6,6.6,11.2C373.9,238.1,372.8,243.6,371,246.3L371,246.3z" />
    <path fill-rule="evenodd" clip-rule="evenodd" fill="#663390" d="M374.9,236.1c0,0-1.7-8-6.2-13.2c-4.5-5.1-7.9-9.5-7.5-17.4
		c0,0,1.4,7.2,6.9,12.5C372.6,222.3,376.7,230,374.9,236.1L374.9,236.1z" />
    <path fill-rule="evenodd" clip-rule="evenodd" fill="#663390" d="M375.2,226.5c0,0-3.5-7.4-6.7-10.6c-4.2-4-6.1-7.7-6.5-13.2
		c0,0,2.5,5.1,6.7,8.8C372.8,215.3,375.4,222.3,375.2,226.5L375.2,226.5z" />
    <path fill-rule="evenodd" clip-rule="evenodd" fill="#663390" d="M374.2,213.7c0,0-3.7-4.3-7.5-9c0,0,3.7,1.9,4.5,2.3
		C371.2,207,372.8,211.3,374.2,213.7L374.2,213.7z" />
    <path fill-rule="evenodd" clip-rule="evenodd" fill="#663390" d="M337.2,105.4c1.3,0.8,2.6,1.8,3.7,2.9c0.8,0.1,1.5,0.3,2.3,0.7
		C343.1,109,341.1,106.7,337.2,105.4L337.2,105.4z" />
    <path fill-rule="evenodd" clip-rule="evenodd" fill="#663390" d="M345,115.7c0.2,0.7,0.4,1.4,0.5,2.1c1.2-0.6,2.4-1.2,3.7-1.7
		l0.5-2C349.8,114,347.8,114.4,345,115.7L345,115.7z" />
    <path fill-rule="evenodd" clip-rule="evenodd" fill="#663390" d="M346,121.1c0.2,2.4,0.1,4.8-0.2,7.3c0.4-0.3,0.6-0.4,0.6-0.4
		c1.6-1.6,1.9-7.9,1.9-7.9C347.6,120.4,346.8,120.7,346,121.1L346,121.1z" />
    <path fill-rule="evenodd" clip-rule="evenodd" fill="#663390" d="M341.2,144.7h-2.5c-0.6,2-1,4.1-1.3,6.3c1.7,4.7,2.2,10,1.6,16
		c0.5,6.9-0.9,12.7-0.9,12.7c2.5-2.3,5.4-11.2,3.1-23.3C340.4,151.9,340.6,147.9,341.2,144.7L341.2,144.7z" />
    <path fill-rule="evenodd" clip-rule="evenodd" fill="#663390" d="M306,168.3c-0.3,1.5-1.9,7.9,0.4,7.9c2.7,0,3-3.7,3.4-5.7
		c1-4.6,0-7.7-1.9-10.1C307.1,163.7,306.6,166.1,306,168.3L306,168.3z" />
    <path fill-rule="evenodd" clip-rule="evenodd" fill="#663390" d="M213.5,119.7l1.1,13.3l5.5-25h21.9l-0.2,0.9l-17.4,82.2H203
		l-1.3-27.8l-6.1,27.8h-21.9l17.6-83.1h21.3l0-0.2h-21.3h-4h-17.6h-8.1h-21.6l-1.4,2.7l0.6-2.7H114h-4H90.5h-6.2H61.6l-2.1,7l1-7
		H30.6L23,195.5h37l14.5-41.7l-8.9,41.7h25.8h4h25.1l0.2-1.1l0,1.1h22.2h9.1h16.6h4h22.7l2.8-12.7l0.6,12.7h25.5l2.1-9.8
		c0.6,1.9,1.6,3.8,2.9,5.4c3.2,4,8.1,6,14.6,6c4.4,0,8.8-1.1,12.8-3.2l0.1,1.5h21.5l1.5-7.2c0.4,0.9,1,1.7,1.6,2.4
		c3.6,4.4,9.8,6.5,19.6,6.5c18.3,0,29.3-8.1,32.7-24.1c1.2-5.5,1.4-10.1,1-14c0.1,3.2-0.2,7-1.1,11.4c-3.1,14.8-13.4,22.3-30.5,22.3
		c-9.1,0-14.7-1.8-17.9-5.6c-3-3.7-3.6-9.4-2-17.3l2.5-12h18.8c-0.8-0.7-1.6-1.3-2.5-2c-6.4-4.9-13.7-10.5-10-27.8
		c3.8-17.9,17.9-21.7,29.1-21.7c1.3,0,2.6,0,3.8,0.1c-1.8-0.2-3.7-0.3-5.9-0.3c-13.1,0-22.7,4.9-27.9,14c0.5,5.8-1,13-2.7,20.8
		l-0.1,0.6H263l0.2-0.9c0.1-0.6,0.4-1.4,0.6-2.3c1-3.8,2.7-10.1,2.6-13.5l-0.8-0.5c-1,0.3-1.4,1.7-1.7,3.4l-3.4,16.2h27.8l-10,47
		h-17.5l-0.2-3.2c-4.5,3.1-9.7,4.8-14.9,4.8c-5.7,0-10-1.7-12.8-5.2c-4.5-5.6-3.9-14.1-2.5-20.2l7.3-34.5
		c3.7-17.3,14.8-26.5,32.3-26.5c1.2,0,2.3,0,3.4,0.1c-1.7-0.2-3.5-0.3-5.5-0.3c-12,0-21.4,4.2-27.5,12.2l2.2-10.6h-26.6L213.5,119.7
		L213.5,119.7z M167.9,108h22.7l-17.6,83.1h-21.3h-3.8H125l-0.6-17.4l-3.8,17.4H96.3L114,108h24.4l-3.5,16.6l8.6-16.6h22.1H167.9
		L167.9,108z M89.4,108h23.9l-17.6,83.1h-25l15.9-74.6l-26,74.6H27.6l7.3-83.1H60l-4.8,34.7L65.5,108h22.8H89.4L89.4,108z" />
    <path fill-rule="evenodd" clip-rule="evenodd" fill="#663390" d="M257.1,160l-2.3,10.8c-0.2,0.9-0.6,2.7-0.2,3.3
		c0,0.1,0.2,0.2,0.7,0.2c1.5,0,1.9-1.6,2.3-3.6l0-0.1l2.2-10.6H257.1L257.1,160z" />
    <path fill-rule="evenodd" clip-rule="evenodd" fill="#663390" d="M317.8,123.7c-1,0-1.7,1.2-2.1,3.7c-0.1,0.5-0.2,0.8-0.3,1.2
		c-0.1,0.5-0.2,1-0.3,1.4c-0.3,1.7,0.1,3,1.5,4.3l1.6-6.1c0.3-1.2,1-3.4,0.4-4.2C318.6,123.9,318.4,123.7,317.8,123.7L317.8,123.7z" />
    <path fill-rule="evenodd" clip-rule="evenodd" fill="#663390" d="M341.3,120.3c0.2,4.1-0.6,9.1-1.8,14.8l-0.1,0.6h-21
		c0.8,0.6,1.8,1.3,2.7,1.9c1.2,0.8,2.4,1.6,3.6,2.5h14.5l0.5-2.4C341.1,130.9,341.9,125.1,341.3,120.3L341.3,120.3z" />
    <polygon fill-rule="evenodd" clip-rule="evenodd" fill="#663390" points="147.3,148.8 147.2,146.4 163.9,116.3 150.6,179.2 
		149.1,167.1 156.3,133 147.3,148.8 	" />
  </g>
  <g></g>
  <g></g>
  <g></g>
  <g></g>
  <g></g>
  <g></g>
  <g></g>
  <g></g>
  <g></g>
  <g></g>
  <g></g>
  <g></g>
  <g></g>
  <g></g>
  <g></g>
</svg>